<svg width="40" height="40" xmlns="http://www.w3.org/2000/svg">
    <g id="Layer_1">
        <title>Layer 1</title>
        <path stroke="#000" id="svg_5"
            d="m20.1909,0.57851c5.30748,0 9.61322,4.33414 9.61322,9.6715c0,5.33737 -4.30573,9.66734 -9.61322,9.66734c-5.30748,0 -9.61322,4.33414 -9.61322,9.6715c0,5.33737 4.30573,9.66733 9.61322,9.66733c10.61497,0 19.23058,-8.66412 19.23058,-19.33883c0,-10.67473 -8.61561,-19.33884 -19.23058,-19.33884l0,0c0,0 0,0 0,0zm0,6.64917c-1.65944,0 -3.00543,1.35355 -3.00543,3.02234c0,1.66879 1.34599,3.02235 3.00543,3.02235c1.65945,0 3.00543,-1.35355 3.00543,-3.02235c0,-1.66878 -1.34598,-3.02234 -3.00543,-3.02234zm0,19.33883c1.65859,0 3.00543,1.35442 3.00543,3.02235c0,1.66793 -1.34684,3.02235 -3.00543,3.02235c-1.65859,0 -3.00543,-1.35442 -3.00543,-3.02235c0,-1.66792 1.34684,-3.02235 3.00543,-3.02235zm18.79926,-6.63683c0,10.66678 -8.59874,19.31394 -19.20583,19.31394c-10.60708,0 -19.20582,-8.64715 -19.20582,-19.31394c0,-10.66679 8.59874,-19.31395 19.20582,-19.31395c10.60709,0 19.20583,8.64715 19.20583,19.31395z"
            fill="#fff" />
        <path id="svg_6" d="m8.59416,18.68177" opacity="NaN" stroke="#bf0000" fill="#fff" />
    </g>
</svg>
